<svg xmlns="http://www.w3.org/2000/svg" width="48.733" height="28.515" viewBox="0 0 48.733 28.515"><g transform="translate(-202.934 -20.071)"><path d="M11.649,41.747Q6.266,41.671,4.1,39.44T1.934,31.581V13.67h9.715Zm2.1,0V13.67h9.715V31.581q0,5.627-2.166,7.858T13.749,41.747Z" transform="translate(201 6.401)" fill="red"/><path d="M12.013,13.658a3.623,3.623,0,0,1,.426-.039q.225-.008.643-.008,3.747,0,5.52,1.633a6.514,6.514,0,0,1,1.773,5.024,6.568,6.568,0,0,1-1.781,5.063q-1.781,1.641-5.512,1.641-.418,0-.643-.008a3.624,3.624,0,0,1-.426-.039ZM1.934,36.542V13.658h8.144V36.542Z" transform="translate(219.847 11.544)" fill="#fff" stroke="#000" stroke-width="1"/><path d="M.293,32.606a4.07,4.07,0,0,1,1.084-2.833,3.284,3.284,0,0,1,5.063,0,4.258,4.258,0,0,1,.015,5.659,3.359,3.359,0,0,1-5.094,0A4.04,4.04,0,0,1,.293,32.606ZM8.669,13.67h8.113V27.218q0,5.094-2.028,7.269t-6.72,2.175q-.31,0-.627-.008t-.674-.023a4.5,4.5,0,0,0,1.5-1.92,9.674,9.674,0,0,0,.434-3.344Z" transform="translate(234.884 11.485)" fill="#36cdf3"/></g></svg>