<svg xmlns="http://www.w3.org/2000/svg" width="23" height="23" viewBox="0 0 23 23">
  <defs>
    <style>
      .cls-1 {
        fill: #fff;
      }
    </style>
  </defs>
  <path id="Icon_awesome-phone" data-name="Icon awesome-phone" class="cls-1" d="M.835,1.1,5.507.027A1.085,1.085,0,0,1,6.742.651L8.9,5.682a1.075,1.075,0,0,1-.31,1.258L5.866,9.168a16.648,16.648,0,0,0,7.96,7.96l2.228-2.722a1.077,1.077,0,0,1,1.258-.31l5.031,2.156a1.091,1.091,0,0,1,.629,1.24l-1.078,4.672A1.078,1.078,0,0,1,20.843,23,20.841,20.841,0,0,1,0,2.156,1.077,1.077,0,0,1,.835,1.1Z" transform="translate(0.001 0.001)"/>
</svg>
