<svg xmlns="http://www.w3.org/2000/svg" xmlns:xlink="http://www.w3.org/1999/xlink" width="260.403" height="61.822" viewBox="0 0 260.403 61.822">
  <defs>
    <clipPath id="clip-path">
      <path id="Path_4" data-name="Path 4" d="M0,39.849H44.195V-20.467H0Z" transform="translate(0 20.467)" fill="red"/>
    </clipPath>
  </defs>
  <g id="Group_54" data-name="Group 54" transform="translate(-304 -77.5)">
    <g id="Group_4" data-name="Group 4" transform="translate(304 97.967)">
      <g id="Group_3" data-name="Group 3" transform="translate(0 -20.467)" clip-path="url(#clip-path)">
        <path id="Path_3" data-name="Path 3" d="M12.86,0H-7.082V38.479q0,12.086,4.446,16.88t15.5,4.957ZM32.667,55.359q4.448-4.792,4.446-16.88V0H17.171V60.316q11.049-.164,15.5-4.957" transform="translate(7.082 0.001)" fill="red"/>
      </g>
    </g>
    <path id="Path_46" data-name="Path 46" d="M1.976,19.948a26.444,26.444,0,0,0,3.51.208c2.86,0,4.836-.52,6.058-1.638a4.724,4.724,0,0,0,1.482-3.51,4.517,4.517,0,0,0-3.614-4.394v-.052a4.161,4.161,0,0,0,2.964-3.848A3.674,3.674,0,0,0,10.92,3.62C9.828,2.736,8.372,2.346,6.11,2.346a21.919,21.919,0,0,0-4.134.364Zm2.262-15.7a9.7,9.7,0,0,1,2-.156c2.288,0,3.848.806,3.848,2.86,0,1.69-1.4,2.938-3.8,2.938H4.238Zm0,7.358H6.11c2.47,0,4.524.988,4.524,3.38,0,2.548-2.158,3.406-4.5,3.406a12.087,12.087,0,0,1-1.9-.1Zm20.9-1.69H18.33V4.374h7.2v-1.9H16.068V20h9.854V18.1H18.33V11.784h6.812ZM27.664,20H40.456V18.1h-9.8v-.078l9.672-14.17V2.476H28.5v1.9h8.892v.078L27.664,18.674Zm15.574,0H45.5V12.98a7.786,7.786,0,0,0,1.82.156,7.261,7.261,0,0,0,5.356-1.924,5.159,5.159,0,0,0,1.352-3.744A4.711,4.711,0,0,0,52.494,3.8,7.2,7.2,0,0,0,47.58,2.346a26.217,26.217,0,0,0-4.342.338ZM45.5,4.322a9.492,9.492,0,0,1,2.132-.182c2.5,0,4.134,1.118,4.134,3.432,0,2.418-1.664,3.744-4.394,3.744a7.586,7.586,0,0,1-1.872-.182ZM57.07,2.476V20h2.262V2.476ZM72.358,9.912H65.546V4.374h7.2v-1.9H63.284V20h9.854V18.1H65.546V11.784h6.812Zm15.5,7.722a9.054,9.054,0,0,1-3.692.728c-4.264,0-6.734-2.756-6.734-7.046,0-4.6,2.73-7.228,6.838-7.228a8.239,8.239,0,0,1,3.536.728l.546-1.846a9.393,9.393,0,0,0-4.16-.78c-5.434,0-9.152,3.718-9.152,9.2,0,5.746,3.718,8.866,8.658,8.866a11.228,11.228,0,0,0,4.628-.832ZM89.96,20h12.792V18.1h-9.8v-.078l9.672-14.17V2.476H90.792v1.9h8.892v.078L89.96,18.674ZM114.608,9.912H107.8V4.374H115v-1.9h-9.464V20h9.854V18.1H107.8V11.784h6.812ZM120.458,20V12.512c0-2.912-.052-5.018-.182-7.228l.078-.026a55.623,55.623,0,0,0,3.276,5.85L129.194,20h2.288V2.476H129.35V9.808c0,2.73.052,4.862.26,7.2l-.052.026a49.606,49.606,0,0,0-3.146-5.694L120.8,2.476h-2.47V20ZM135.434,2.476V20H137.7V2.476ZM150.7,14.488,152.568,20h2.418l-5.98-17.524h-2.73L140.322,20h2.34l1.82-5.512ZM144.95,12.72l1.716-5.07c.338-1.066.624-2.132.884-3.172h.052c.26,1.014.52,2.054.91,3.2l1.716,5.044Z" transform="translate(355 77)" fill="#fff"/>
    <g id="u-pana-janka_3_" data-name="u-pana-janka (3)" transform="translate(64.759 -198.159)">
      <path id="Path_35" data-name="Path 35" d="M292.694,410.417a1.75,1.75,0,0,0,.687-.425c.306-.251.457-.478.847-.837s.652-.605,1.1-.954a9.724,9.724,0,0,1,1.137-.788,8.869,8.869,0,0,1,1.031-.509,2.829,2.829,0,0,1,.692-.292c.173-.018.172-.031.177.2a2.871,2.871,0,0,1-.145.957,16.134,16.134,0,0,1-.563,1.7c-.292.771-.534,1.28-.9,2.151s-.611,1.386-.918,2.21a12.69,12.69,0,0,0-.619,1.911,2.781,2.781,0,0,0-.1,1.418.968.968,0,0,0,.686.774,1.561,1.561,0,0,0,1.2-.106,5.944,5.944,0,0,0,1.506-.9,21.573,21.573,0,0,0,1.819-1.481c.771-.672,1.221-1.1,2.038-1.879s1.273-1.252,2.048-2.015,1.189-1.19,1.826-1.8,1-.9,1.358-1.253a1.97,1.97,0,0,0,.422-.518c.006-.01-.173.077-.4.471s-.381.787-.714,1.493-.6,1.211-.953,2.041a16.492,16.492,0,0,0-.8,2.11,5.423,5.423,0,0,0-.314,1.829,1.96,1.96,0,0,0,.4,1.373,1.688,1.688,0,0,0,1.217.664,4.05,4.05,0,0,0,1.8-.108,13.087,13.087,0,0,0,2.251-.746c.869-.341,1.386-.6,2.1-.957a9,9,0,0,0,1.471-.815c.264-.221.177-.38-.152-.291s-.777.412-1.492.743-1.229.588-2.084.912a13.371,13.371,0,0,1-2.185.707,3.848,3.848,0,0,1-1.628.078,1.151,1.151,0,0,1-.915-.492,1.465,1.465,0,0,1-.325-1.081,5.064,5.064,0,0,1,.275-1.7,14.148,14.148,0,0,1,.806-2.042c.362-.807.652-1.3,1-1.995a10.884,10.884,0,0,0,.752-1.51c.14-.462.113-.7-.057-.807s-.37-.036-.791.289a15.485,15.485,0,0,0-1.316,1.337c-.622.634-1.025,1.067-1.792,1.836s-1.225,1.238-2.045,2-1.275,1.19-2.055,1.833a17.94,17.94,0,0,1-1.841,1.382,7.16,7.16,0,0,1-1.443.763,1.323,1.323,0,0,1-.861.169c-.232-.052-.247-.1-.3-.429a2.929,2.929,0,0,1,.029-1.211,10.876,10.876,0,0,1,.553-1.861c.295-.81.543-1.323.919-2.188s.634-1.359.964-2.132a12.615,12.615,0,0,0,.687-1.73,2.044,2.044,0,0,0,.116-1.218.808.808,0,0,0-.65-.6,1.59,1.59,0,0,0-1.035.129,5.183,5.183,0,0,0-1.1.624c-.46.289-.724.465-1.2.819s-.754.592-1.171.949a7.255,7.255,0,0,0-.905.83,1.545,1.545,0,0,0-.411.717c-.032.191.064.278.251.243" transform="translate(0 -85.375)" fill="#a7f0e4" stroke="#a7f0e4" stroke-width="1"/>
      <path id="Path_36" data-name="Path 36" d="M561.781,357.955c-.117.106-.182.2-.29.588s-.087.644-.253,1.333-.263,1.157-.574,2.112-.521,1.54-.981,2.663-.753,1.766-1.319,2.953-.907,1.839-1.509,2.986-.933,1.753-1.5,2.748-.87,1.488-1.343,2.223a15.768,15.768,0,0,1-1.02,1.446c-.319.405-.485.432-.574.578s-.049.222.126.155a1.38,1.38,0,0,0,.743-.488,10.1,10.1,0,0,0,1.016-1.51c.462-.754.742-1.259,1.3-2.265s.887-1.614,1.489-2.765.944-1.8,1.52-2.991.873-1.83,1.357-2.951.711-1.7,1.065-2.654.488-1.414.708-2.1a9.362,9.362,0,0,0,.4-1.33.932.932,0,0,0-.063-.68c-.071-.145-.178-.159-.293-.052" transform="translate(-223.62 -43.926)" fill="#a7f0e4" stroke="#a7f0e4" stroke-width="1"/>
      <path id="Path_37" data-name="Path 37" d="M584.134,334.3c.143-.123.172-.351.39-.724a5.234,5.234,0,0,1,.7-1.141,5.465,5.465,0,0,1,1.369-1.222,8.3,8.3,0,0,1,2.031-.957,11.7,11.7,0,0,1,2.442-.613,11.515,11.515,0,0,1,2.573-.168,8.992,8.992,0,0,1,2.4.356,5.728,5.728,0,0,1,1.914.838,2.928,2.928,0,0,1,1.164,1.214,2.114,2.114,0,0,1,.286,1.506,3.817,3.817,0,0,1-.675,1.813,9.045,9.045,0,0,1-1.661,2,18.328,18.328,0,0,1-2.449,2A28.078,28.078,0,0,1,591.75,341a28.563,28.563,0,0,1-2.832,1.425,19.9,19.9,0,0,1-2.4.917,12.425,12.425,0,0,1-1.644.384,7.109,7.109,0,0,0-.812.161c-.159.073-.159.158.017.2a1.755,1.755,0,0,0,.868.017,8.5,8.5,0,0,0,1.681-.437,22.376,22.376,0,0,0,2.406-.982c1.051-.488,1.7-.8,2.847-1.453a30.056,30.056,0,0,0,2.9-1.816,19.362,19.362,0,0,0,2.5-2,9.318,9.318,0,0,0,1.748-2.033,4.066,4.066,0,0,0,.761-1.956,2.507,2.507,0,0,0-.324-1.741,3.234,3.234,0,0,0-1.306-1.34,5.987,5.987,0,0,0-2.033-.859,9.547,9.547,0,0,0-2.476-.355,12.34,12.34,0,0,0-2.638.165,12.9,12.9,0,0,0-2.511.6,9.442,9.442,0,0,0-2.145.93,6.274,6.274,0,0,0-1.537,1.229,3.9,3.9,0,0,0-.865,1.218,1.42,1.42,0,0,0-.147.914c.035.2.179.229.321.106" transform="translate(-250.651 -19.183)" fill="#a7f0e4" stroke="#a7f0e4" stroke-width="1"/>
      <path id="Path_38" data-name="Path 38" d="M665.207,423a.562.562,0,0,0-.179-.43,1.442,1.442,0,0,0-.573-.433,2,2,0,0,0-.932-.244,3.113,3.113,0,0,0-1.174.215,6.253,6.253,0,0,0-1.38.615,10.029,10.029,0,0,0-1.524,1.041,12.547,12.547,0,0,0-1.491,1.375,10.131,10.131,0,0,0-1.2,1.5,4.477,4.477,0,0,0-.719,1.373,1.443,1.443,0,0,0,.011,1.12,1,1,0,0,0,.77.639,2.195,2.195,0,0,0,1.288-.134,7.333,7.333,0,0,0,1.636-.747,18.3,18.3,0,0,0,1.9-1.218c.775-.548,1.22-.9,1.973-1.516s1.165-.988,1.8-1.542.974-.826,1.356-1.227a1.882,1.882,0,0,0,.553-.775c.036-.172-.142-.242-.37-.083a3.588,3.588,0,0,0-.771.882,13.164,13.164,0,0,0-.891,1.453,12.186,12.186,0,0,0-.766,1.581,3.291,3.291,0,0,0-.362,1.341,1.087,1.087,0,0,0,.426.936,1.243,1.243,0,0,0,1.049.279,4.087,4.087,0,0,0,1.461-.492,15.243,15.243,0,0,0,1.809-.995c.773-.465,1.225-.782,2.05-1.336s1.285-.9,2.075-1.432,1.249-.865,1.872-1.246a13.433,13.433,0,0,1,1.243-.657c.3-.156.3-.228.261-.127s-.19.25-.433.63-.446.738-.782,1.271-.594.886-.9,1.4a4.459,4.459,0,0,0-.63,1.161.753.753,0,0,0,.154.809.721.721,0,0,0,.817.159,5.494,5.494,0,0,0,1.309-.731c.623-.379,1.035-.671,1.809-1.165s1.245-.824,2.056-1.308,1.28-.761,2-1.113a9.892,9.892,0,0,1,1.611-.648,1.937,1.937,0,0,1,.93-.138c.232.032.221.074.226.3a3.37,3.37,0,0,1-.2.828c-.109.412-.215.719-.349,1.229a7.683,7.683,0,0,0-.321,1.32,2.157,2.157,0,0,0,.074,1.175,1.2,1.2,0,0,0,.731.778,2.127,2.127,0,0,0,1.316.042,7.866,7.866,0,0,0,1.783-.563c.8-.313,1.273-.541,2.213-1s1.489-.771,2.488-1.3,1.56-.852,2.508-1.362,1.443-.782,2.23-1.186,1.175-.564,1.706-.833a5.472,5.472,0,0,0,.947-.509c.2-.169.175-.268.054-.334a.662.662,0,0,0-.651.006,6.683,6.683,0,0,0-1.14.732c-.545.37-.925.631-1.58,1.122s-1.051.795-1.7,1.331-1.023.851-1.548,1.356a6.3,6.3,0,0,0-1.083,1.174,1.273,1.273,0,0,0-.278.978.646.646,0,0,0,.523.581,1.73,1.73,0,0,0,1.118-.095,6.953,6.953,0,0,0,1.482-.728c.643-.372,1.018-.631,1.735-1.126s1.136-.806,1.846-1.345,1.147-.9,1.7-1.352a11.161,11.161,0,0,0,1.076-.914c.226-.253.166-.383.059-.348a1.366,1.366,0,0,0-.6.518,6.546,6.546,0,0,0-.749,1.276,5.362,5.362,0,0,0-.531,1.488,2.029,2.029,0,0,0,.063,1.32,1.42,1.42,0,0,0,.914.827,3.251,3.251,0,0,0,1.586.183,11.665,11.665,0,0,0,2.13-.356,20.115,20.115,0,0,0,2.052-.57,7.654,7.654,0,0,0,1.467-.555c.272-.175.212-.341-.106-.314a15.253,15.253,0,0,0-1.486.444c-.7.193-1.211.352-2.027.52a11.928,11.928,0,0,1-2.051.319,2.93,2.93,0,0,1-1.361-.187c-.383-.145-.448-.243-.55-.541a1.413,1.413,0,0,1,.041-.949,6.992,6.992,0,0,1,.559-1.3c.25-.51.524-.83.69-1.25s.225-.668.141-.855-.231-.254-.557-.08a8.558,8.558,0,0,0-1.076.947c-.543.468-.95.851-1.647,1.391s-1.118.847-1.834,1.312a15.235,15.235,0,0,1-1.745,1.016,10.077,10.077,0,0,1-1.436.571,3.864,3.864,0,0,1-.841.231c-.207.028-.222.053-.19-.1a1.7,1.7,0,0,1,.351-.645,8.232,8.232,0,0,1,.944-1.155,15.879,15.879,0,0,1,1.5-1.345,19.8,19.8,0,0,1,1.706-1.269c.668-.45,1.072-.659,1.633-.979a13.248,13.248,0,0,0,1.178-.619c.306-.232.342-.4.348-.545s-.062-.229-.32-.169a4.457,4.457,0,0,0-.976.469c-.527.279-.884.5-1.658.93s-1.27.706-2.214,1.221-1.506.834-2.506,1.359-1.551.828-2.492,1.263a19.949,19.949,0,0,1-2.21.912,7.853,7.853,0,0,1-1.713.433,1.833,1.833,0,0,1-1.016-.067c-.275-.094-.3-.149-.355-.4a2.062,2.062,0,0,1,.068-.872c.08-.419.19-.724.327-1.225a9.336,9.336,0,0,0,.356-1.281,2,2,0,0,0-.038-1.1.857.857,0,0,0-.636-.626,1.858,1.858,0,0,0-1.176.124,9.331,9.331,0,0,0-1.653.745c-.734.377-1.2.659-2.019,1.141s-1.3.8-2.09,1.267-1.227.733-1.85,1.065-.936.42-1.266.591-.362.282-.386.261.092-.08.264-.363.3-.563.6-1.049.564-.838.905-1.383a8.294,8.294,0,0,0,.795-1.34c.18-.467.23-.74.11-1s-.306-.381-.71-.285a4.657,4.657,0,0,0-1.308.764c-.632.414-1.067.76-1.851,1.308s-1.243.887-2.067,1.428-1.287.845-2.059,1.275a13.087,13.087,0,0,1-1.8.88,5.2,5.2,0,0,1-1.327.359c-.4.064-.521.078-.673-.036s-.133-.2-.094-.537a3.713,3.713,0,0,1,.293-1.138,11.01,11.01,0,0,1,.782-1.475c.337-.574.608-.912.9-1.391a4.806,4.806,0,0,0,.564-1c.075-.274,0-.411-.187-.366s-.344.209-.746.585-.662.722-1.267,1.291-1.014.946-1.759,1.552a23.466,23.466,0,0,1-1.963,1.477,14.737,14.737,0,0,1-1.9,1.125,7.542,7.542,0,0,1-1.576.608,2.4,2.4,0,0,1-1.017.108c-.288-.025-.352-.032-.419-.232a1.093,1.093,0,0,1,.078-.768,4.908,4.908,0,0,1,.588-1.269,8.47,8.47,0,0,1,1.125-1.449,10.154,10.154,0,0,1,1.451-1.306,7.9,7.9,0,0,1,1.487-.93,4.537,4.537,0,0,1,1.3-.437,2.38,2.38,0,0,1,.94-.014,2.145,2.145,0,0,1,.641.2c.225.081.31.152.483.209s.261.11.383.074a.282.282,0,0,0,.228-.251" transform="translate(-312.713 -98.681)" fill="#a7f0e4" stroke="#a7f0e4" stroke-width="1"/>
      <path id="Path_39" data-name="Path 39" d="M1145.076,314.821c.136.015.2,0,.5-.152s.485-.286,1.021-.592.893-.528,1.661-.939,1.26-.646,2.182-1.115,1.456-.743,2.431-1.231,1.507-.754,2.441-1.2,1.412-.682,2.228-1.044,1.217-.528,1.848-.761a10.424,10.424,0,0,1,1.3-.4c.368-.092.44-.166.531-.059s.018.187-.077.6a12.746,12.746,0,0,1-.4,1.454c-.242.732-.43,1.213-.81,2.21s-.623,1.59-1.087,2.777-.725,1.85-1.234,3.16-.774,2.026-1.309,3.391-.8,2.1-1.371,3.433-.854,2.02-1.461,3.248a30.391,30.391,0,0,1-1.574,2.895,18.593,18.593,0,0,1-1.7,2.421,11.621,11.621,0,0,1-1.8,1.84,7.633,7.633,0,0,1-1.831,1.2,5.016,5.016,0,0,1-1.76.556,3.435,3.435,0,0,1-1.563-.075,2.946,2.946,0,0,1-1.283-.627,2.782,2.782,0,0,1-.879-1.045,2.843,2.843,0,0,1-.4-1.327,3.161,3.161,0,0,1,.175-1.5,4.4,4.4,0,0,1,.856-1.565,7.4,7.4,0,0,1,1.563-1.51,12.136,12.136,0,0,1,2.179-1.348,20.251,20.251,0,0,1,2.674-1.137c1.137-.416,1.776-.6,3.006-.943s1.894-.495,3.152-.789,1.915-.423,3.138-.687,1.845-.384,2.976-.63,1.688-.367,2.674-.6,1.459-.356,2.256-.566,1.161-.309,1.735-.487a5,5,0,0,0,1.137-.4c.313-.186.39-.323.429-.525a.443.443,0,0,0-.238-.49,1.072,1.072,0,0,0-.8-.205,2.99,2.99,0,0,0-1.133.405,7.746,7.746,0,0,0-1.341.838,11.354,11.354,0,0,0-1.44,1.235,13.661,13.661,0,0,0-1.373,1.569,12.114,12.114,0,0,0-1.113,1.674,6.3,6.3,0,0,0-.685,1.54,2.183,2.183,0,0,0-.112,1.26,1.121,1.121,0,0,0,.618.821,1.524,1.524,0,0,0,1.133.158,3.885,3.885,0,0,0,1.4-.567,10.419,10.419,0,0,0,1.59-1.086,20.286,20.286,0,0,0,1.686-1.475c.659-.625,1.019-1,1.615-1.648s.942-1.042,1.364-1.57a4.557,4.557,0,0,0,.747-1.076c.108-.286-.025-.412-.2-.362a1.448,1.448,0,0,0-.7.613,7.987,7.987,0,0,0-.774,1.407,10.942,10.942,0,0,0-.63,1.612,3.88,3.88,0,0,0-.275,1.4,1.344,1.344,0,0,0,.38,1.027,1.275,1.275,0,0,0,1.007.443,3.118,3.118,0,0,0,1.407-.341,10.914,10.914,0,0,0,1.721-.884c.733-.429,1.167-.728,1.95-1.259s1.225-.879,1.967-1.4,1.141-.82,1.737-1.2.928-.513,1.236-.707.331-.3.309-.264a2.132,2.132,0,0,0-.419.45c-.218.32-.363.634-.672,1.151s-.543.887-.873,1.435a10.618,10.618,0,0,0-.773,1.308,1.594,1.594,0,0,0-.208,1.014.562.562,0,0,0,.532.51,1.83,1.83,0,0,0,1.086-.291,13.759,13.759,0,0,0,1.512-.933c.683-.433,1.114-.746,1.9-1.235s1.261-.791,2.036-1.211a16.456,16.456,0,0,1,1.836-.891,4.261,4.261,0,0,1,1.181-.331c.3-.043.306-.049.313.115s-.12.324-.278.7-.3.687-.506,1.2a10.654,10.654,0,0,0-.5,1.347,2.785,2.785,0,0,0-.172,1.227,1.12,1.12,0,0,0,.5.884,1.371,1.371,0,0,0,1.125.211,4.548,4.548,0,0,0,1.587-.592,14.9,14.9,0,0,0,2.044-1.252,29.661,29.661,0,0,0,2.4-1.846c1-.834,1.554-1.337,2.586-2.326s1.584-1.553,2.579-2.617,1.507-1.646,2.392-2.7,1.319-1.615,2.028-2.579,1.027-1.449,1.521-2.242a11.013,11.013,0,0,0,.956-1.724,1.949,1.949,0,0,0,.271-1.174.437.437,0,0,0-.605-.36c-.321.1-.543.314-1,.838a16.844,16.844,0,0,0-1.3,1.784c-.58.854-.933,1.421-1.6,2.481s-1.05,1.693-1.728,2.825-1.034,1.752-1.658,2.835-.94,1.64-1.47,2.58-.775,1.4-1.179,2.115-.625,1-.835,1.446a1.554,1.554,0,0,0-.215.8c.012.155.229-.008.275-.028s-.029-.088-.043-.07-.113.254-.027.158a2.484,2.484,0,0,0,.457-.64c.233-.427.342-.771.707-1.5s.606-1.2,1.119-2.143.823-1.506,1.445-2.589.977-1.7,1.66-2.828,1.072-1.755,1.756-2.8,1.06-1.6,1.664-2.417.925-1.182,1.358-1.678a7.292,7.292,0,0,1,.812-.8c.175-.161.11-.2.059,0a4.951,4.951,0,0,1-.31,1,12.236,12.236,0,0,1-.835,1.727,23.411,23.411,0,0,1-1.463,2.251c-.693.965-1.123,1.524-2,2.58s-1.389,1.636-2.381,2.695-1.542,1.621-2.578,2.6-1.593,1.475-2.594,2.287a24.532,24.532,0,0,1-2.418,1.771,12.47,12.47,0,0,1-2.045,1.128,4.956,4.956,0,0,1-1.477.426c-.444.071-.572.045-.746-.067s-.144-.2-.127-.489a3.735,3.735,0,0,1,.212-.981c.142-.45.3-.763.5-1.27a7.5,7.5,0,0,0,.5-1.266,1.49,1.49,0,0,0-.028-1.042.728.728,0,0,0-.722-.49,3.04,3.04,0,0,0-1.341.407,18.842,18.842,0,0,0-1.855.961c-.782.435-1.256.735-2.056,1.208s-1.252.766-1.946,1.158-1.053.566-1.526.806a8.756,8.756,0,0,1-.83.393c-.183.068-.148.1-.085-.048s.176-.314.4-.711.393-.733.718-1.269.585-.888.909-1.411a6.22,6.22,0,0,0,.706-1.208c.138-.414.137-.665-.016-.863s-.345-.273-.743-.133a5.944,5.944,0,0,0-1.253.834c-.594.418-.978.728-1.711,1.256s-1.177.872-1.96,1.389a22.047,22.047,0,0,1-1.952,1.193,9.731,9.731,0,0,1-1.688.766,3.434,3.434,0,0,1-1.208.222c-.369.01-.478,0-.63-.169s-.156-.288-.133-.664a4.081,4.081,0,0,1,.246-1.214,11.22,11.22,0,0,1,.668-1.495c.283-.57.546-.912.75-1.351a1.888,1.888,0,0,0,.271-.838c-.018-.175-.135-.23-.36-.033a10.282,10.282,0,0,0-.767,1.021c-.409.525-.7.957-1.278,1.6a20.061,20.061,0,0,1-1.588,1.63,15.982,15.982,0,0,1-1.682,1.405,9.018,9.018,0,0,1-1.57.96,4.364,4.364,0,0,1-1.256.418,1.134,1.134,0,0,1-.77-.007c-.215-.092-.257-.159-.306-.45a2.024,2.024,0,0,1,.063-1,5.843,5.843,0,0,1,.581-1.456,10.142,10.142,0,0,1,1.059-1.625,11.143,11.143,0,0,1,1.348-1.5,8.11,8.11,0,0,1,1.429-1.115,5.55,5.55,0,0,1,1.32-.616,6.98,6.98,0,0,1,.993-.218,2.7,2.7,0,0,0,.538-.2c.129-.06.169-.1.1-.094a1.466,1.466,0,0,0-.443.137c-.295.122-.489.263-1.033.474s-.9.341-1.679.58-1.253.369-2.231.617-1.534.375-2.66.63-1.748.377-2.97.645-1.88.4-3.142.69-1.925.441-3.164.785-1.88.521-3.032.932a21.353,21.353,0,0,0-2.72,1.122,12.75,12.75,0,0,0-2.252,1.344,7.776,7.776,0,0,0-1.668,1.538,4.823,4.823,0,0,0-.975,1.671,3.541,3.541,0,0,0-.239,1.69,3.183,3.183,0,0,0,.447,1.538,3.133,3.133,0,0,0,1.032,1.2,3.318,3.318,0,0,0,1.481.675,3.825,3.825,0,0,0,1.73.031,5.394,5.394,0,0,0,1.857-.641,8.008,8.008,0,0,0,1.872-1.284,12.182,12.182,0,0,0,1.811-1.9,19.211,19.211,0,0,0,1.7-2.463,31.328,31.328,0,0,0,1.572-2.921c.606-1.236.894-1.922,1.461-3.262s.837-2.073,1.378-3.437.806-2.079,1.326-3.384.783-1.966,1.267-3.145.742-1.763,1.158-2.749.633-1.443.922-2.184a6.208,6.208,0,0,0,.528-1.517.985.985,0,0,0-.232-.947.9.9,0,0,0-.9-.225,5.392,5.392,0,0,0-1.364.535c-.641.275-1.025.457-1.837.838s-1.288.619-2.221,1.073-1.467.724-2.445,1.2-1.513.75-2.446,1.2-1.432.666-2.226,1.034-1.17.537-1.738.809a6.515,6.515,0,0,0-1.1.55.666.666,0,0,0-.326.507c-.03.147.043.211.18.225" transform="translate(-729.304)" fill="#a7f0e4" stroke="#a7f0e4" stroke-width="1"/>
      <path id="Path_40" data-name="Path 40" d="M1551.518,404.518a2.822,2.822,0,0,0,.94-.338c.446-.205.747-.413,1.288-.694s.9-.464,1.415-.705.766-.32,1.143-.5a3.783,3.783,0,0,0,.742-.405c.2-.152.258-.243.249-.36s-.085-.21-.3-.219a1.294,1.294,0,0,0-.759.166,10.238,10.238,0,0,0-1.073.735c-.5.337-.83.542-1.429.953s-.967.648-1.562,1.1a16,16,0,0,0-1.418,1.162,6.179,6.179,0,0,0-1.053,1.139,2.262,2.262,0,0,0-.511,1.127,1.419,1.419,0,0,0,.229,1.074,1.835,1.835,0,0,0,.919.768,3.848,3.848,0,0,0,1.456.348,8.67,8.67,0,0,0,1.866,0,15.414,15.414,0,0,0,2.15-.319,22.258,22.258,0,0,0,2.288-.581c.917-.272,1.406-.447,2.293-.785s1.341-.541,2.143-.905,1.2-.567,1.862-.918a16.606,16.606,0,0,0,1.457-.838,3.714,3.714,0,0,0,.968-.735.908.908,0,0,0,.279-.754.692.692,0,0,0-.4-.6,1.486,1.486,0,0,0-.979-.212,4.236,4.236,0,0,0-1.356.366,9.709,9.709,0,0,0-1.6.761,12.983,12.983,0,0,0-1.657,1.106,12.063,12.063,0,0,0-1.485,1.3,6.987,6.987,0,0,0-1.081,1.313,2.472,2.472,0,0,0-.5,1.194,1.155,1.155,0,0,0,.293.972,1.309,1.309,0,0,0,.934.517,2.987,2.987,0,0,0,1.365-.165,8.429,8.429,0,0,0,1.643-.631,16.23,16.23,0,0,0,1.811-.988c.718-.436,1.119-.721,1.777-1.189s1.046-.764,1.513-1.148a4.964,4.964,0,0,0,.817-.768c.144-.193.042-.268-.092-.191a1.5,1.5,0,0,0-.583.577,4.584,4.584,0,0,0-.545,1.26,4.015,4.015,0,0,0-.212,1.464,2.19,2.19,0,0,0,.37,1.3,2.056,2.056,0,0,0,1.1.851,4.108,4.108,0,0,0,1.7.309,9.489,9.489,0,0,0,2.174-.2,18.741,18.741,0,0,0,2.446-.594c.988-.288,1.6-.521,2.492-.847s1.339-.506,1.961-.781a5.66,5.66,0,0,0,1.158-.6c.21-.168.15-.291-.11-.242a10.876,10.876,0,0,0-1.194.49c-.627.253-1.063.45-1.945.774s-1.489.57-2.463.851a16.3,16.3,0,0,1-2.408.552,8.717,8.717,0,0,1-2.091.127,3.781,3.781,0,0,1-1.516-.335,1.553,1.553,0,0,1-.99-1.664,4.187,4.187,0,0,1,.324-1.213c.168-.475.393-.76.516-1.164a1.486,1.486,0,0,0,.1-.856c-.067-.215-.162-.318-.433-.224a3.908,3.908,0,0,0-.922.694c-.471.38-.8.731-1.433,1.207a16.568,16.568,0,0,1-1.739,1.171,13.011,13.011,0,0,1-1.786.911,7.465,7.465,0,0,1-1.579.5,3.489,3.489,0,0,1-1.146.064c-.352-.022-.474-.032-.616-.176s-.151-.239-.1-.546a2.429,2.429,0,0,1,.365-.99,6.221,6.221,0,0,1,.967-1.263,9.967,9.967,0,0,1,1.426-1.262,9.865,9.865,0,0,1,1.621-1.025,7.033,7.033,0,0,1,1.551-.609,5.824,5.824,0,0,1,1.226-.166,5.545,5.545,0,0,1,.717-.057c.184,0,.233-.02.207.061s-.108.129-.34.342a7.232,7.232,0,0,1-.819.728,12.142,12.142,0,0,1-1.369.893c-.636.369-1.03.576-1.816.947s-1.237.576-2.112.911a23.929,23.929,0,0,1-2.269.768,19.37,19.37,0,0,1-2.261.541,13.189,13.189,0,0,1-2.1.249,7.778,7.778,0,0,1-1.767-.087,3.8,3.8,0,0,1-1.25-.384,1.374,1.374,0,0,1-.671-.527.719.719,0,0,1-.144-.65,1.878,1.878,0,0,1,.365-.9,5.671,5.671,0,0,1,.936-1.087,11.942,11.942,0,0,1,1.366-1.133,17.351,17.351,0,0,1,1.562-1.041c.609-.369.953-.545,1.484-.807s.821-.3,1.168-.506a1.381,1.381,0,0,0,.567-.507c.113-.179.092-.3,0-.387s-.2-.109-.448-.064a3.269,3.269,0,0,0-.807.291c-.387.172-.618.313-1.126.573s-.879.441-1.422.725-.874.441-1.3.7a2.877,2.877,0,0,0-.8.588c-.129.18-.056.317.165.313" transform="translate(-1081.163 -81.267)" fill="#a7f0e4" stroke="#a7f0e4" stroke-width="1"/>
    </g>
  </g>
</svg>
